Patient4_TMGait_0pt6_02_right_14_GRF.mot
version=1
nRows=71
nColumns=19
inDegrees=no
endheader
time	F1x	F1y	F1z	M1x	M1y	M1z	F2x	F2y	F2z	M2x	M2y	M2z	EC1x	EC1y	EC1z	EC2x	EC2y	EC2z
16.62	-10.6519	719.6643	43.8787	-259.0202	-42.9847	679.2946	6.8277	4.2551	1.0167	1.4985	0.42265	-1.8936	-0.0592	0.0182	-0.0073	-0.0462	0.0165	0.9585
16.6321	-3.4343	722.0045	45.848	-259.5742	-42.2485	682.8003	4.5114	3.6053	0.64148	1.3189	0.44781	-0.40688	-0.0592	0.0182	-0.0073	-0.0462	0.0165	0.9585
16.6443	3.1314	725.0311	47.2418	-260.4151	-41.1573	685.8145	2.5326	3.116	0.35559	1.1837	0.42598	0.9422	-0.0592	0.0182	-0.0073	-0.0462	0.0165	0.9585
16.6564	8.7048	728.5576	48.04	-261.4942	-39.8074	688.1027	0.99548	2.8181	0.16102	1.1003	0.3829	2.0795	-0.0592	0.0182	-0.0073	-0.0462	0.0165	0.9585
16.6686	13.2699	732.3483	48.2813	-262.7387	-38.2525	689.5783	-0.068769	2.6774	0.053687	1.0609	0.32035	2.9483	-0.0592	0.0182	-0.0073	-0.0462	0.0165	0.9585
16.6807	16.9444	736.1711	48.1262	-264.0709	-36.6124	690.238	-0.7551	2.665	0.0022317	1.0567	0.26738	3.5896	-0.0592	0.0182	-0.0073	-0.0462	0.0165	0.9585
16.6929	19.9427	739.8874	47.6923	-265.4472	-34.9401	690.1716	-1.1387	2.7032	-0.012302	1.0645	0.22336	3.9902	-0.0592	0.0182	-0.0073	-0.0462	0.0165	0.9585
16.705	22.4785	743.4702	47.1584	-266.8567	-33.3358	689.5676	-1.3412	2.7196	-0.014565	1.0586	0.20575	4.1609	-0.0592	0.0182	-0.0073	-0.0462	0.0165	0.9585
16.7171	24.7637	746.9728	46.6455	-268.3107	-31.8388	688.6291	-1.4272	2.6059	-0.015631	1.0013	0.21626	4.0405	-0.0592	0.0182	-0.0073	-0.0462	0.0165	0.9585
16.7293	26.981	750.4671	46.3003	-269.8144	-30.5148	687.5363	-1.4778	2.2516	-0.024124	0.84967	0.26559	3.5669	-0.0592	0.0182	-0.0073	-0.0462	0.0165	0.9585
16.7414	29.306	753.9684	46.2048	-271.3488	-29.3736	686.3791	-1.5092	1.5141	-0.042861	0.55118	0.34159	2.601	-0.0592	0.0182	-0.0073	-0.0462	0.0165	0.9585
16.7536	31.8327	757.3707	46.4331	-272.8452	-28.4343	685.1126	-1.5281	0.27484	-0.075419	0.059119	0.42896	1.0424	-0.0592	0.0182	-0.0073	-0.0462	0.0165	0.9585
16.7657	34.6424	760.4224	46.9989	-274.1788	-27.6708	683.5472	-1.5	-1.5652	-0.11824	-0.66481	0.49642	-1.2079	-0.0592	0.0182	-0.0073	-0.0462	0.0165	0.9585
16.7779	37.7351	762.7398	47.8939	-275.1768	-27.0658	681.3982	-1.3691	-4.0165	-0.16509	-1.6254	0.50747	-4.1442	-0.0592	0.0182	-0.0073	-0.0462	0.0165	0.9585
16.79	41.0489	763.8611	49.0597	-275.6431	-26.5915	678.3041	-1.0533	-6.9399	-0.19259	-2.7677	0.4055	-7.5931	-0.0592	0.0182	-0.0073	-0.0462	0.0165	0.9585
16.8021	44.4253	763.3487	50.4349	-275.393	-26.2506	673.9621	-0.44754	-9.9569	-0.18221	-3.9412	0.13256	-11.118	-0.0592	0.0182	-0.0073	-0.0462	0.0165	0.9585
16.8143	47.7126	760.9469	51.9566	-274.3114	-26.055	668.229	0.55844	-12.3284	-0.098125	-4.8545	-0.38694	-13.8766	-0.0592	0.0182	-0.0073	-0.0462	0.0165	0.9585
16.8264	50.7072	756.7041	53.5902	-272.3952	-26.053	661.2433	2.0831	-12.886	0.082212	-5.044	-1.2133	-14.5488	-0.0592	0.0182	-0.0073	-0.0462	0.0165	0.9585
16.8386	53.2917	750.995	55.3269	-269.7667	-26.2948	653.3955	4.1747	-9.9121	0.3957	-3.8337	-2.3874	-11.1733	-0.0592	0.0182	-0.0073	-0.0462	0.0165	0.9585
16.8507	55.3997	744.3573	57.1393	-266.623	-26.7904	645.1965	6.7943	-1.1648	0.86017	-0.33887	-3.8909	-1.1947	-0.0592	0.0182	-0.0073	-0.0462	0.0165	0.9585
16.8629	57.0773	737.1872	58.9327	-263.1334	-27.4546	636.9698	9.6857	16.0226	1.4775	6.4905	-5.6016	18.4459	-0.0592	0.0182	-0.0073	-0.0462	0.0165	0.9585
16.875	58.4241	729.4608	60.5148	-259.3408	-28.0921	628.6464	12.333	44.3676	2.2087	17.7266	-7.2479	50.8515	-0.0592	0.0182	-0.0073	-0.0462	0.0165	0.9585
16.8871	59.6028	720.529	61.5898	-255.0864	-28.4011	619.5866	13.7977	86.0168	2.9546	34.21	-8.3361	98.5028	-0.0592	0.0182	-0.0073	-0.0462	0.0165	0.9585
16.8993	60.7045	709.0029	61.817	-249.9639	-28.063	608.5082	12.6907	141.4527	3.535	56.1228	-8.1061	161.974	-0.0592	0.0182	-0.0073	-0.0462	0.0165	0.9585
16.9114	61.7002	692.8485	60.8394	-243.3446	-26.7969	593.6121	7.1858	208.1042	3.6425	82.4329	-5.5207	238.3663	-0.0592	0.0182	-0.0073	-0.0462	0.0165	0.9585
16.9236	62.3662	669.7063	58.3833	-234.4758	-24.4636	572.862	-3.9088	279.2453	2.8662	110.4599	0.28309	320.0077	-0.0592	0.0182	-0.0073	-0.0462	0.0165	0.9585
16.9357	62.3021	637.433	54.3247	-222.6567	-21.119	544.4479	-18.6324	345.7596	0.27241	136.5536	9.4842	396.4062	-0.0592	0.0182	-0.0073	-0.0462	0.0165	0.9585
16.9479	61.04	594.7785	48.7947	-207.4573	-17.054	507.3404	-33.2321	400.8039	-4.3512	157.9757	20.7573	459.3906	-0.0592	0.0182	-0.0073	-0.0462	0.0165	0.9585
16.96	58.1867	541.8586	42.2157	-188.8787	-12.7601	461.7121	-45.2175	442.1572	-10.4885	173.8422	32.5404	506.0486	-0.0592	0.0182	-0.0073	-0.0462	0.0165	0.9585
16.9721	53.5781	480.1303	35.2303	-167.3656	-8.8105	408.8197	-53.704	472.0025	-17.5776	185.0341	43.8055	538.7552	-0.0592	0.0182	-0.0073	-0.0462	0.0165	0.9585
16.9843	47.2205	412.3045	28.4006	-143.7883	-5.6363	350.9797	-58.6434	495.0024	-24.5137	193.4436	53.3818	562.7753	-0.0592	0.0182	-0.0073	-0.0462	0.0165	0.9585
16.9964	39.3525	341.8552	22.1932	-119.2997	-3.5143	291.0946	-60.8273	516.0799	-30.9751	201.0442	61.1876	583.8506	-0.0592	0.0182	-0.0073	-0.0462	0.0165	0.9585
17.0086	30.3938	272.688	16.8244	-95.2251	-2.4557	232.438	-60.9703	538.9876	-36.3442	209.3774	66.9198	606.1931	-0.0592	0.0182	-0.0073	-0.0462	0.0165	0.9585
17.0207	21.0429	208.4696	12.4135	-72.8384	-2.3066	178.043	-59.8969	566.0553	-40.9341	219.3569	71.2223	632.5026	-0.0592	0.0182	-0.0073	-0.0462	0.0165	0.9585
17.0329	12.167	152.1462	8.9047	-53.1766	-2.7054	130.3509	-58.0497	597.8779	-44.7813	231.2346	74.3872	663.4268	-0.0592	0.0182	-0.0073	-0.0462	0.0165	0.9585
17.045	4.6063	105.3604	6.2414	-36.8294	-3.3062	90.6846	-55.8748	633.4438	-48.4555	244.5916	77.1754	698.0032	-0.0592	0.0182	-0.0073	-0.0462	0.0165	0.9585
17.0571	-1.1171	68.4358	4.2479	-23.9279	-3.7774	59.3109	-53.5141	670.427	-51.9376	258.5329	79.6673	733.7034	-0.0592	0.0182	-0.0073	-0.0462	0.0165	0.9585
17.0693	-4.8148	40.7435	2.8061	-14.2579	-3.9618	35.7173	-51.2522	706.0762	-55.4132	271.9827	82.143	767.6801	-0.0592	0.0182	-0.0073	-0.0462	0.0165	0.9585
17.0814	-6.5611	21.1135	1.746	-7.4124	-3.7526	18.9322	-49.0885	737.8671	-58.5599	283.99	84.2972	797.2555	-0.0592	0.0182	-0.0073	-0.0462	0.0165	0.9585
17.0936	-6.6951	8.1422	0.96855	-2.8961	-3.1939	7.7987	-47.0418	763.9459	-61.1728	293.8483	85.9117	820.5647	-0.0592	0.0182	-0.0073	-0.0462	0.0165	0.9585
17.1057	-5.781	0.45072	0.41657	-0.22049	-2.4455	1.14	-44.9786	783.0048	-62.8373	301.0891	86.5107	836.2586	-0.0592	0.0182	-0.0073	-0.0462	0.0165	0.9585
17.1179	-4.4706	-3.3157	0.062714	1.0916	-1.7089	-2.1501	-42.7856	794.4394	-63.4971	305.4795	85.9727	843.8126	-0.0592	0.0182	-0.0073	-0.0462	0.0165	0.9585
17.13	-3.0939	-4.454	-0.12122	1.4898	-1.0882	-3.2049	-40.3542	798.271	-63.1508	307.026	84.2567	843.3195	-0.0592	0.0182	-0.0073	-0.0462	0.0165	0.9585
17.1421	-1.9116	-3.9971	-0.19972	1.338	-0.61361	-2.8701	-37.7143	795.3052	-62.0104	306.0157	81.59	835.7049	-0.0592	0.0182	-0.0073	-0.0462	0.0165	0.9585
17.1543	-0.96183	-2.7823	-0.19194	0.92117	-0.29394	-1.9029	-34.918	787.0441	-60.2946	303.0018	78.2331	822.6046	-0.0592	0.0182	-0.0073	-0.0462	0.0165	0.9585
17.1664	-0.31734	-1.3257	-0.15181	0.41887	-0.10348	-0.70347	-32.0802	775.4566	-58.2487	298.72	74.4986	806.1196	-0.0592	0.0182	-0.0073	-0.0462	0.0165	0.9585
17.1786	0.12027	0.025312	-0.082124	-0.053658	-0.017294	0.40217	-29.3307	762.7389	-56.0685	293.9995	70.655	788.5521	-0.0592	0.0182	-0.0073	-0.0462	0.0165	0.9585
17.1907	0.34647	1.1331	-0.02	-0.44639	0.0036465	1.3283	-26.7562	751.0146	-53.8981	289.6426	66.9049	772.0927	-0.0592	0.0182	-0.0073	-0.0462	0.0165	0.9585
17.2029	0.46544	1.9416	0.043376	-0.73986	-0.019749	1.9891	-24.4609	741.9523	-51.8878	286.2799	63.4495	758.4613	-0.0592	0.0182	-0.0073	-0.0462	0.0165	0.9585
17.215	0.48446	2.4959	0.083967	-0.94633	-0.055686	2.4558	-22.4795	736.5845	-50.1256	284.2955	60.403	748.6969	-0.0592	0.0182	-0.0073	-0.0462	0.0165	0.9585
17.2271	0.46607	2.8358	0.11085	-1.0806	-0.089634	2.7401	-20.8468	735.2487	-48.7216	283.8017	57.8846	743.1463	-0.0592	0.0182	-0.0073	-0.0462	0.0165	0.9585
17.2393	0.40394	3.0364	0.11878	-1.1653	-0.10885	2.9207	-19.5214	737.6323	-47.6962	284.6695	55.9	741.4749	-0.0592	0.0182	-0.0073	-0.0462	0.0165	0.9585
17.2514	0.34016	3.1466	0.11105	-1.2168	-0.10716	3.0399	-18.4633	742.9932	-47.0817	286.6008	54.4586	742.9301	-0.0592	0.0182	-0.0073	-0.0462	0.0165	0.9585
17.2636	0.26703	3.2065	0.096107	-1.2446	-0.097011	3.1322	-17.5752	750.3031	-46.8293	289.1953	53.4729	746.4513	-0.0592	0.0182	-0.0073	-0.0462	0.0165	0.9585
17.2757	0.18894	3.2438	0.075753	-1.2548	-0.084286	3.2136	-16.7803	758.4325	-46.9132	292.0151	52.8783	750.9037	-0.0592	0.0182	-0.0073	-0.0462	0.0165	0.9585
17.2879	0.1176	3.2259	0.068673	-1.2374	-0.084995	3.2419	-15.9717	766.266	-47.248	294.6347	52.5447	755.1554	-0.0592	0.0182	-0.0073	-0.0462	0.0165	0.9585
17.3	0.032615	3.1218	0.073807	-1.1806	-0.10575	3.1811	-15.0588	772.7871	-47.7856	296.6706	52.3821	758.1825	-0.0592	0.0182	-0.0073	-0.0462	0.0165	0.9585
17.3121	-0.051043	2.8403	0.11536	-1.0531	-0.16641	2.8993	-13.9508	777.1802	-48.4131	297.8265	52.2385	759.1569	-0.0592	0.0182	-0.0073	-0.0462	0.0165	0.9585
17.3243	-0.15391	2.3114	0.17581	-0.82682	-0.25886	2.334	-12.5519	778.9177	-49.0634	297.9142	52.0111	757.5452	-0.0592	0.0182	-0.0073	-0.0462	0.0165	0.9585
17.3364	-0.23142	1.4102	0.27381	-0.45869	-0.38507	1.3219	-10.8159	777.7692	-49.6134	296.8637	51.5626	753.1083	-0.0592	0.0182	-0.0073	-0.0462	0.0165	0.9585
17.3486	-0.29468	0.071685	0.37861	0.077172	-0.5131	-0.17382	-8.7313	773.7925	-50.0031	294.7103	50.8317	745.9066	-0.0592	0.0182	-0.0073	-0.0462	0.0165	0.9585
17.3607	-0.24888	-1.7542	0.49869	0.79439	-0.61567	-2.2335	-6.3462	767.3095	-50.1876	291.5869	49.7958	736.2775	-0.0592	0.0182	-0.0073	-0.0462	0.0165	0.9585
17.3729	-0.073886	-3.9566	0.58267	1.652	-0.62696	-4.7023	-3.7421	758.9125	-50.2073	287.7246	48.5228	724.8116	-0.0592	0.0182	-0.0073	-0.0462	0.0165	0.9585
17.385	0.34977	-6.3016	0.61348	2.5538	-0.48006	-7.3492	-0.99796	749.4636	-50.1294	283.4539	47.0988	712.3395	-0.0592	0.0182	-0.0073	-0.0462	0.0165	0.9585
17.3971	1.0697	-8.251	0.50413	3.293	-0.059089	-9.5317	1.8171	739.9618	-50.0731	279.1551	45.6515	699.8116	-0.0592	0.0182	-0.0073	-0.0462	0.0165	0.9585
17.4093	2.2006	-8.9681	0.1956	3.5416	0.7447	-10.3345	4.6646	731.3417	-50.1423	275.1858	44.288	688.1047	-0.0592	0.0182	-0.0073	-0.0462	0.0165	0.9585
17.4214	3.7562	-7.1788	-0.42869	2.8035	2.0654	-8.3158	7.5317	724.3	-50.4091	271.8095	43.0825	677.8772	-0.0592	0.0182	-0.0073	-0.0462	0.0165	0.9585
17.4336	5.7351	-1.2368	-1.4422	0.42756	3.9854	-1.6475	10.4494	719.0799	-50.9005	269.1228	42.0522	669.3446	-0.0592	0.0182	-0.0073	-0.0462	0.0165	0.9585
17.4457	7.9406	10.8827	-2.9306	-4.3809	6.5241	11.9811	13.446	715.4047	-51.5798	267.0257	41.1565	662.2647	-0.0592	0.0182	-0.0073	-0.0462	0.0165	0.9585
17.4579	10.0089	31.2759	-4.8794	-12.4461	9.5216	34.9397	16.5458	712.4302	-52.3573	265.2126	40.3157	655.8724	-0.0592	0.0182	-0.0073	-0.0462	0.0165	0.9585
17.47	11.2792	61.729	-7.1875	-24.4603	12.5946	69.2576	19.6735	708.8484	-53.049	263.2089	39.3954	649.0333	-0.0592	0.0182	-0.0073	-0.0462	0.0165	0.9585
